<svg width="28" height="22" viewBox="0 0 28 22" fill="none" xmlns="http://www.w3.org/2000/svg">
<g clip-path="url(#clip0_32_12)">
<path d="M20.93 16.445C18.9357 17.6394 16.5073 18.3011 14 18.3333C5.83335 18.3333 1.16669 11 1.16669 11C2.61789 8.87507 4.63068 7.01855 7.07002 5.555M11.55 3.88666C12.3531 3.73897 13.1753 3.66514 14 3.66666C22.1667 3.66666 26.8334 11 26.8334 11C26.1252 12.041 25.2806 13.021 24.3134 13.9242M16.4734 12.9433C16.1529 13.2135 15.7665 13.4302 15.3372 13.5805C14.9079 13.7308 14.4444 13.8117 13.9745 13.8182C13.5045 13.8247 13.0377 13.7568 12.6019 13.6184C12.1661 13.4801 11.7702 13.2743 11.4378 13.0131C11.1055 12.752 10.8435 12.4409 10.6674 12.0985C10.4914 11.7561 10.405 11.3893 10.4133 11.0201C10.4216 10.6508 10.5244 10.2867 10.7157 9.94936C10.907 9.61203 11.1828 9.30843 11.5267 9.05666" stroke="white" stroke-opacity="0.25" stroke-width="2" stroke-linecap="round" stroke-linejoin="round"/>
<path d="M1.16669 0.916664L26.8334 21.0833" stroke="white" stroke-opacity="0.25" stroke-width="2" stroke-linecap="round" stroke-linejoin="round"/>
</g>
<defs>
<clipPath id="clip0_32_12">
<rect width="28" height="22" fill="white"/>
</clipPath>
</defs>
</svg>
