<svg width="18" height="18" viewBox="0 0 18 18" fill="none" xmlns="http://www.w3.org/2000/svg">
<path d="M1.18331 16.8167C1.41665 17.05 1.64998 17.1667 1.99998 17.1667C2.34998 17.1667 2.58331 17.05 2.81665 16.8167L8.99998 10.6333L15.1833 16.8167C15.4166 17.05 15.7666 17.1667 16 17.1667C16.2333 17.1667 16.5833 17.05 16.8166 16.8167C17.2833 16.35 17.2833 15.65 16.8166 15.1833L10.6333 9L16.8166 2.81667C17.2833 2.35 17.2833 1.65 16.8166 1.18334C16.35 0.716669 15.65 0.716669 15.1833 1.18334L8.99998 7.36667L2.81665 1.18334C2.34998 0.716669 1.64998 0.716669 1.18331 1.18334C0.716646 1.65 0.716646 2.35 1.18331 2.81667L7.36665 9L1.18331 15.1833C0.716646 15.65 0.716646 16.35 1.18331 16.8167Z" fill="white" fill-opacity="0.25"/>
</svg>
