<svg width="25" height="22" viewBox="0 0 25 22" fill="none" xmlns="http://www.w3.org/2000/svg">
<g clip-path="url(#clip0_32_30)">
<path d="M24 3.30351C24 1.98748 22.9504 0.920639 21.6557 0.920639H2.34432C1.04958 0.920639 0 1.98748 0 3.30351V18.8354C0 20.1514 1.04958 21.2183 2.34432 21.2183H21.6557C22.9504 21.2183 24 20.1514 24 18.8354V3.30351ZM2.35688 2.82489H21.6741C21.9326 2.82489 22.1407 3.03448 22.1407 3.29729V3.31797L12.3465 13.2743C12.2271 13.3957 12.0881 13.4139 12.0156 13.4139C11.9431 13.4139 11.8036 13.3957 11.6841 13.2743L1.88764 3.31661V3.29729C1.88764 3.03448 2.09835 2.82489 2.35688 2.82489ZM21.6741 19.314H2.35688C2.09835 19.314 1.88764 19.0964 1.88764 18.8336V6.01251L10.3583 14.6223C10.8011 15.0723 11.3899 15.3202 12.016 15.3202C12.6423 15.3201 13.2299 15.0722 13.6727 14.6222L22.1407 6.01385V18.8336C22.1407 19.0964 21.9326 19.314 21.6741 19.314Z" fill="white" fill-opacity="0.25"/>
</g>
<defs>
<clipPath id="clip0_32_30">
<rect width="25" height="20.2976" fill="white" transform="translate(0 0.920639)"/>
</clipPath>
</defs>
</svg>
