<svg width="28" height="18" viewBox="0 0 28 18" fill="none" xmlns="http://www.w3.org/2000/svg">
<path d="M14.0035 18C9.73852 18 5.70252 16.193 2.63652 12.912C2.54689 12.816 2.47705 12.7033 2.43098 12.5803C2.38491 12.4573 2.36352 12.3265 2.36803 12.1952C2.37253 12.064 2.40284 11.9349 2.45723 11.8153C2.51162 11.6958 2.58902 11.5881 2.68502 11.4985C2.78102 11.4089 2.89373 11.339 3.01671 11.293C3.1397 11.2469 3.27056 11.2255 3.40182 11.23C3.53307 11.2345 3.66215 11.2648 3.7817 11.3192C3.90124 11.3736 4.00889 11.451 4.09852 11.547C6.78152 14.419 10.2985 16 14.0035 16C18.7665 16 23.1525 13.395 25.8435 9C23.1535 4.605 18.7665 2 14.0035 2C9.06552 2 4.53152 4.801 1.87352 9.493C1.8093 9.60824 1.72292 9.70963 1.61934 9.79133C1.51577 9.87304 1.39705 9.93344 1.27003 9.96907C1.143 10.0047 1.01019 10.0148 0.879231 9.99889C0.748274 9.98296 0.621763 9.94128 0.506987 9.87624C0.392212 9.8112 0.291439 9.72409 0.210476 9.61993C0.129512 9.51578 0.0699577 9.39663 0.0352431 9.26936C0.000528604 9.14208 -0.00865981 9.0092 0.00820719 8.87836C0.0250742 8.74752 0.0676633 8.62131 0.133521 8.507C3.15052 3.18 8.33652 0 14.0035 0C19.6715 0 24.8565 3.18 27.8735 8.507C27.9585 8.65722 28.0032 8.82689 28.0032 8.9995C28.0032 9.17211 27.9585 9.34178 27.8735 9.492C24.8565 14.819 19.6715 18 14.0035 18Z" fill="white" fill-opacity="0.25"/>
<path d="M14.0035 14C11.2465 14 9.00354 11.757 9.00354 9C9.00354 6.243 11.2465 4 14.0035 4C16.7605 4 19.0035 6.243 19.0035 9C19.0035 11.757 16.7605 14 14.0035 14ZM14.0035 6C12.3495 6 11.0035 7.346 11.0035 9C11.0035 10.654 12.3495 12 14.0035 12C15.6575 12 17.0035 10.654 17.0035 9C17.0035 7.346 15.6575 6 14.0035 6Z" fill="white" fill-opacity="0.25"/>
</svg>
