<svg width="29" height="28" viewBox="0 0 29 28" fill="none" xmlns="http://www.w3.org/2000/svg">
<path d="M25.5131 9.65861C25.4181 8.42329 24.4681 6.83956 23.5182 6.07936C22.45 5.30138 21.34 4.58234 20.1934 3.92547C19.0555 3.25076 17.8821 2.63751 16.6786 2.08834C16.0358 1.82599 15.3464 1.69669 14.6521 1.70823C13.9576 1.69364 13.2676 1.82306 12.6255 2.08834C11.4222 2.63789 10.2489 3.25115 9.11076 3.92547C7.2742 5.03409 5.78596 6.07936 5.78596 6.07936C4.98679 6.74841 4.38582 7.61391 4.03615 8.58205C3.97966 8.73843 4.1 8.8983 4.26751 8.8983H5.84617C6.03252 8.8983 6.20163 8.79466 6.29838 8.63672C6.57115 8.1914 6.91717 7.78964 7.32603 7.44971C7.32603 7.44971 8.55483 6.59259 10.0712 5.68353C11.011 5.13057 11.9797 4.62771 12.9733 4.17707C13.5034 3.95955 14.0732 3.85341 14.6465 3.86538C15.2198 3.85592 15.789 3.96194 16.3198 4.17707C17.3136 4.62738 18.2823 5.13026 19.2219 5.68353C20.1687 6.22216 21.0851 6.81177 21.9672 7.44971C22.7515 8.07307 23.5359 9.37174 23.6143 10.3847C23.6143 10.3847 23.7973 11.8911 23.8235 13.6755C23.8219 14.7775 23.7608 15.8786 23.6404 16.9741C23.458 18.1212 22.8636 19.1637 21.9672 19.9091C21.9672 19.9091 20.7383 20.7923 19.2219 21.7013C18.2822 22.2543 17.3134 22.7572 16.3198 23.2077C15.7897 23.4253 15.22 23.5314 14.6465 23.5194C14.0738 23.5313 13.5047 23.4279 12.9733 23.2155C11.9796 22.7652 11.0108 22.2624 10.0712 21.7091C8.55483 20.826 7.32603 19.9169 7.32603 19.9169C6.97021 19.6341 6.61441 19.2124 6.32206 18.7414C6.22599 18.5867 6.05881 18.4865 5.87555 18.4865H4.27323C4.10359 18.4865 3.9833 18.6501 4.04487 18.8069C4.42226 19.7677 5.10411 20.7376 5.78596 21.2832C5.78596 21.2832 7.2742 22.3919 9.11076 23.4689C10.2487 24.1436 11.422 24.7568 12.6255 25.306C13.2691 25.5651 13.9585 25.6911 14.6521 25.6765C15.3465 25.6912 16.0366 25.5618 16.6786 25.2965C17.882 24.747 19.0552 24.1336 20.1934 23.4593C22.0299 22.3507 23.5182 21.2738 23.5182 21.2738C24.6039 20.3649 25.3238 19.0933 25.5447 17.6945C25.6904 16.3586 25.7644 15.0157 25.7664 13.6718C25.7347 11.4957 25.5131 9.65861 25.5131 9.65861Z" fill="url(#paint0_linear_32_24)"/>
<path d="M3.53766 11.0565C3.53766 10.7917 3.7539 10.5771 4.02065 10.5771H11.507C11.7738 10.5771 11.99 10.7917 11.99 11.0565V12.4947C11.99 12.7595 11.7738 12.9741 11.507 12.9741H3.53766V11.0565Z" fill="#0066B3"/>
<path d="M3.53778 14.4116H18.7521C19.0187 14.4116 19.235 14.6264 19.235 14.8911V16.3294C19.235 16.5941 19.0187 16.8087 18.7521 16.8087H4.02077C3.75402 16.8087 3.53778 16.5941 3.53778 16.3294V14.4116Z" fill="#EE2F53"/>
<defs>
<linearGradient id="paint0_linear_32_24" x1="14.8484" y1="1.70712" x2="14.8484" y2="25.6776" gradientUnits="userSpaceOnUse">
<stop stop-color="#0066B3"/>
<stop offset="0.354167" stop-color="#0066B3"/>
<stop offset="0.6875" stop-color="#EE2F53"/>
<stop offset="1" stop-color="#EE2F53"/>
</linearGradient>
</defs>
</svg>
