<svg width="24" height="21" viewBox="0 0 24 21" fill="none" xmlns="http://www.w3.org/2000/svg">
<path d="M24 2.38287C24 1.06684 22.9504 0 21.6557 0H2.34432C1.04958 0 0 1.06684 0 2.38287V17.9147C0 19.2308 1.04958 20.2976 2.34432 20.2976H21.6557C22.9504 20.2976 24 19.2308 24 17.9147V2.38287ZM2.35688 1.90425H21.6741C21.9326 1.90425 22.1407 2.11384 22.1407 2.37665V2.39733L12.3465 12.3537C12.2271 12.4751 12.0881 12.4932 12.0156 12.4932C11.9431 12.4932 11.8036 12.4751 11.6841 12.3537L1.88764 2.39597V2.37665C1.88764 2.11384 2.09835 1.90425 2.35688 1.90425ZM21.6741 18.3934H2.35688C2.09835 18.3934 1.88764 18.1758 1.88764 17.913V5.09187L10.3583 13.7016C10.8011 14.1517 11.3899 14.3995 12.016 14.3995C12.6423 14.3995 13.2299 14.1516 13.6727 13.7016L22.1407 5.09322V17.913C22.1407 18.1758 21.9326 18.3934 21.6741 18.3934Z" fill="white" fill-opacity="0.25"/>
</svg>
