<svg width="24" height="24" viewBox="0 0 24 24" fill="none" xmlns="http://www.w3.org/2000/svg">
<path d="M17.4065 23.7517C16.4823 23.7448 15.5622 23.6288 14.6653 23.4061C11.5678 22.6587 8.37819 20.7629 5.68543 18.0678C2.99266 15.3727 1.09449 12.1825 0.347151 9.08796C-0.439765 5.83277 0.121474 3.04784 1.92571 1.2436L2.44087 0.728443C2.90827 0.261978 3.54164 0 4.20198 0C4.86232 0 5.49569 0.261978 5.96309 0.728443L8.92348 3.68824C9.39024 4.15549 9.65241 4.78892 9.65241 5.44935C9.65241 6.10979 9.39024 6.74322 8.92348 7.21046L7.17478 8.95858C8.01309 10.4296 9.1533 11.9018 10.5009 13.2494C11.8484 14.597 13.3218 15.7378 14.7923 16.5761L16.5404 14.8274C16.7716 14.596 17.0462 14.4125 17.3484 14.2873C17.6505 14.1621 17.9744 14.0977 18.3015 14.0977C18.6286 14.0977 18.9525 14.1621 19.2546 14.2873C19.5568 14.4125 19.8314 14.596 20.0626 14.8274L23.0224 17.7872C23.4893 18.2542 23.7515 18.8876 23.7515 19.548C23.7515 20.2084 23.4893 20.8417 23.0224 21.3088L22.5067 21.824C21.2347 23.0983 19.4742 23.7517 17.4065 23.7517ZM4.20198 1.77117C4.10765 1.7707 4.01418 1.78906 3.92704 1.82517C3.8399 1.86129 3.76084 1.91443 3.6945 1.98148L3.17875 2.49664C1.82764 3.84775 1.433 6.04131 2.0675 8.66969C2.73921 11.454 4.46842 14.3471 6.9361 16.8142C9.40379 19.2812 12.2962 21.0087 15.0812 21.6828C17.7101 22.3173 19.9025 21.9226 21.2536 20.5715L21.7688 20.0564C21.9034 19.9216 21.979 19.739 21.979 19.5486C21.979 19.3581 21.9034 19.1755 21.7688 19.0408L18.8096 16.081C18.6749 15.9464 18.4922 15.8708 18.3018 15.8708C18.1114 15.8708 17.9287 15.9464 17.794 16.081L15.578 18.297C15.445 18.4301 15.2732 18.5173 15.0873 18.5462C14.9015 18.5751 14.7112 18.5441 14.5441 18.4577C12.7275 17.5184 10.8961 16.1507 9.24782 14.5024C7.59955 12.8542 6.23485 11.0239 5.29315 9.2073C5.20667 9.04028 5.17557 8.85008 5.20435 8.66422C5.23314 8.47835 5.3203 8.30647 5.45325 8.17343L7.66985 5.95742C7.80445 5.82272 7.88006 5.64008 7.88006 5.44965C7.88006 5.25922 7.80445 5.07658 7.66985 4.94187L4.71005 1.98148C4.6435 1.91454 4.56432 1.86148 4.4771 1.82538C4.38989 1.78928 4.29637 1.77085 4.20198 1.77117Z" fill="white" fill-opacity="0.25"/>
<path d="M18.3529 13.0981C18.1179 13.0981 17.8925 13.0048 17.7263 12.8386C17.5601 12.6724 17.4667 12.447 17.4667 12.212C17.465 10.6573 16.8467 9.16689 15.7475 8.06755C14.6483 6.96821 13.1579 6.34977 11.6033 6.3479C11.3682 6.3479 11.1428 6.25453 10.9766 6.08834C10.8105 5.92216 10.7171 5.69676 10.7171 5.46173C10.7171 5.2267 10.8105 5.0013 10.9766 4.83511C11.1428 4.66893 11.3682 4.57556 11.6033 4.57556C15.8137 4.57556 19.2391 8.00208 19.2391 12.212C19.2391 12.447 19.1457 12.6724 18.9795 12.8386C18.8133 13.0048 18.5879 13.0981 18.3529 13.0981Z" fill="white" fill-opacity="0.25"/>
<path d="M22.0984 13.0982C21.8634 13.0982 21.638 13.0048 21.4718 12.8386C21.3056 12.6724 21.2123 12.447 21.2123 12.212C21.2123 6.91332 16.8996 2.60241 11.6033 2.60241C11.3682 2.60241 11.1428 2.50905 10.9766 2.34286C10.8105 2.17667 10.7171 1.95127 10.7171 1.71625C10.7171 1.48122 10.8105 1.25582 10.9766 1.08963C11.1428 0.923442 11.3682 0.830078 11.6033 0.830078C17.8791 0.830078 22.9846 5.93618 22.9846 12.212C22.9846 12.447 22.8912 12.6724 22.725 12.8386C22.5589 13.0048 22.3335 13.0982 22.0984 13.0982Z" fill="white" fill-opacity="0.25"/>
</svg>
