<svg width="40" height="40" viewBox="0 0 40 40" fill="none" xmlns="http://www.w3.org/2000/svg">
<circle cx="20" cy="20" r="20" fill="white"/>
<path d="M31.2841 23.9657L24.0625 20L31.2841 16.0343C31.8831 15.7054 32.0946 14.9484 31.7529 14.3567L30.7637 12.6433C30.4221 12.0515 29.6607 11.8562 29.0764 12.2105L22.0313 16.4818L22.2077 8.24485C22.2224 7.56169 21.6726 7 20.9892 7H19.0108C18.3275 7 17.7777 7.56169 17.7924 8.24485L17.9688 16.4818L10.9236 12.2105C10.3393 11.8563 9.57798 12.0516 9.23632 12.6433L8.2471 14.3567C7.90544 14.9485 8.117 15.7055 8.71596 16.0344L15.9375 20L8.71591 23.9657C8.11695 24.2946 7.90539 25.0516 8.2471 25.6433L9.23632 27.3567C9.57798 27.9485 10.3393 28.1438 10.9236 27.7895L17.9688 23.5182L17.7923 31.7551C17.7777 32.4383 18.3275 33 19.0108 33H20.9893C21.6726 33 22.2224 32.4383 22.2078 31.7551L22.0313 23.5182L29.0764 27.7895C29.6607 28.1437 30.4221 27.9484 30.7637 27.3567L31.7529 25.6433C32.0946 25.0515 31.8831 24.2946 31.2841 23.9657Z" fill="black"/>
</svg>
